<?xml version="1.0" standalone="no"?><!DOCTYPE svg PUBLIC "-//W3C//DTD SVG 1.1//EN"
  "http://www.w3.org/Graphics/SVG/1.1/DTD/svg11.dtd">
<svg t="1525355805180" class="icon" style="" viewBox="0 0 1024 1024" version="1.1" xmlns="http://www.w3.org/2000/svg"
     p-id="16781" xmlns:xlink="http://www.w3.org/1999/xlink" width="18" height="18">
  <defs>
    <style type="text/css"></style>
  </defs>
  <path
    d="M511.160889 288.868083c-122.561383 0-222.282572 99.715049-222.282572 222.270293 0 122.57878 99.721189 222.299969 222.282572 222.299969 122.5665 0 222.287689-99.721189 222.287689-222.299969 0.001023-122.555244-99.720166-222.270293-222.287689-222.270293z m0 364.686887c-78.517261 0-142.399197-63.893192-142.399197-142.410454s63.881936-142.393058 142.399197-142.393057c78.522378 0 142.404314 63.875796 142.404314 142.393057S589.68429 653.55497 511.160889 653.55497z m-39.949874-479.272621V91.756797c0-22.059412 17.890462-39.944757 39.938618-39.944758 22.059412 0 39.944757 17.885346 39.944757 39.944758v82.524528c0 22.053272-17.885346 39.938618-39.944757 39.938618-22.048155 0.001023-39.938618-17.884322-39.938618-39.937594z m499.28235 336.862167c0 22.053272-17.885346 39.938618-39.938617 39.938618H848.01794c-22.059412 0-39.944757-17.885346-39.944758-39.938618 0-22.059412 17.885346-39.944757 39.944758-39.944757h82.535785c22.054295 0 39.939641 17.885346 39.93964 39.944757zM551.09439 848.001567v82.530668c0 22.053272-17.885346 39.938618-39.944757 39.938618-22.048155 0-39.938618-17.885346-39.938618-39.938618v-82.530668c0-22.053272 17.890462-39.938618 39.938618-39.938618 22.059412 0 39.944757 17.884322 39.944757 39.938618zM174.298721 551.083134H91.774193c-22.053272 0-39.938618-17.885346-39.938618-39.938618 0-22.059412 17.885346-39.944757 39.938618-39.944757h82.524528c22.059412 0 39.944757 17.885346 39.944758 39.944757 0 22.053272-17.885346 39.938618-39.944758 39.938618z m546.82311-249.893421c-15.600303-15.600303-15.600303-40.880059-0.006139-56.475245l58.358129-58.375526c15.594163-15.600303 40.881083-15.600303 56.475246 0 15.60542 15.594163 15.60542 40.880059 0.017396 56.486502l-58.364269 58.364269c-7.791453 7.80271-18.023492 11.707646-28.243251 11.707647-10.225899 0-20.439518-3.904936-28.237112-11.707647z m114.844632 478.250339c15.589047 15.60542 15.589047 40.897456 0 56.503898-7.80271 7.791453-18.023492 11.69025-28.249391 11.69025s-20.440541-3.898797-28.243251-11.69025l-58.358129-58.364269c-15.594163-15.600303-15.594163-40.886199 0-56.486502 15.594163-15.594163 40.881083-15.594163 56.486502 0l58.364269 58.346873z m-534.736841-58.34585c15.589047 15.600303 15.589047 40.886199 0 56.486502l-58.364269 58.364269c-7.80885 7.791453-18.023492 11.69025-28.254507 11.69025-10.219759 0-20.434401-3.898797-28.243251-11.69025-15.600303-15.60542-15.600303-40.897456 0-56.503898l58.358129-58.346873c15.600303-15.595186 40.886199-15.595186 56.503898 0zM186.367595 242.825444c-15.600303-15.60542-15.600303-40.892339 0-56.486502 15.60542-15.600303 40.892339-15.594163 56.497758 0l58.364269 58.375526c15.589047 15.594163 15.589047 40.874943-0.017396 56.475245-7.797593 7.80271-18.023492 11.707646-28.237111 11.707647-10.232039 0-20.451798-3.903913-28.249391-11.707647l-58.358129-58.364269z"
    fill="#f5cb37" p-id="16782"></path>
</svg>
