<?xml version="1.0" standalone="no"?><!DOCTYPE svg PUBLIC "-//W3C//DTD SVG 1.1//EN"
  "http://www.w3.org/Graphics/SVG/1.1/DTD/svg11.dtd">
<svg t="1525269739379" class="icon" style="" viewBox="0 0 1024 1024" version="1.1" xmlns="http://www.w3.org/2000/svg"
     p-id="16781" xmlns:xlink="http://www.w3.org/1999/xlink" width="18" height="18">
  <defs>
    <style type="text/css"></style>
  </defs>
  <path
    d="M892.239094 452.272687V894.802476H117.807103V120.375601h442.528765V65.059761H117.807103c-30.550807 0-55.310723 24.765033-55.310724 55.31584V894.802476c0 30.550807 24.759917 55.31584 55.310724 55.31584h774.431991c30.54569 0 55.310723-24.765033 55.310723-55.31584V452.272687h-55.310723zM295.250444 554.983977c-0.813528 13.43601-1.598404 31.68463-2.301415 54.209646-1.222851 38.013779-1.841951 75.93239-1.841952 76.308966a40.052205 40.052205 0 0 0 11.715833 29.030174 39.935548 39.935548 0 0 0 28.294416 11.782347c0.232291 0 0.448208-0.022513 0.657986-0.022512 0.38681 0 38.184671-0.64673 76.098166-1.847068 22.474874-0.735757 40.674375-1.50426 54.071499-2.340301 24.726148-1.50426 39.656185-2.439562 52.008515-14.819521l385.370974-386.383024c0.177032-0.193405 0.354064-0.376577 0.553609-0.569982 0.298805-0.298805 0.586354-0.575098 0.88516-0.885159 56.201-56.356542 56.201-148.075477 0-204.43202-56.228629-56.372915-147.699923-56.372915-203.939809 0.016373-0.282433 0.276293-0.553609 0.575098-0.851391 0.868787-0.177032 0.177032-0.370437 0.376577-0.569982 0.558726L310.052568 502.848573c-12.352329 12.373819-13.270235 27.347858-14.802124 52.135404z m80.534198-4.530177l375.2208-376.216477a59.367109 59.367109 0 0 0 1.570775-1.559519c0.310062-0.321318 0.6191-0.6191 0.896417-0.896416 24.986067-25.086351 65.671699-25.086351 90.680278 0 24.974811 25.052582 24.974811 65.831334 0 90.917686-0.298805 0.292666-0.608867 0.586354-0.917905 0.901533-0.542352 0.487094-1.045819 1.01205-1.554402 1.570775L466.481294 641.365346c-17.723663 1.427512-55.305607 2.798742-94.479815 3.80056 1.000793-39.274492 2.400676-76.961836 3.783163-94.712106z"
    fill="#ffffff" p-id="16782"></path>
</svg>
