<?xml version="1.0" standalone="no"?><!DOCTYPE svg PUBLIC "-//W3C//DTD SVG 1.1//EN"
  "http://www.w3.org/Graphics/SVG/1.1/DTD/svg11.dtd">
<svg t="1525355839618" class="icon" style="" viewBox="0 0 1024 1024" version="1.1" xmlns="http://www.w3.org/2000/svg"
     p-id="16946" xmlns:xlink="http://www.w3.org/1999/xlink" width="16" height="16">
  <defs>
    <style type="text/css"></style>
  </defs>
  <path
    d="M868.026103 873.636529C705.40115 833.705401 584.760708 686.941237 584.760708 512 584.760708 337.058763 705.40115 190.294599 868.026033 150.363489 793.209538 94.879091 700.575285 62.060615 600.275862 62.060615 351.781199 62.060615 150.336477 263.505337 150.336477 512 150.336477 760.494663 351.781199 961.939385 600.275862 961.939385 700.575285 961.939385 793.209538 929.120909 868.026103 873.636529ZM88.275862 512C88.275862 229.230204 317.506066 0 600.275862 0 711.49628 0 817.495075 35.625066 904.994074 100.514904 947.191649 131.808892 933.844604 198.106377 882.824881 210.633834 745.28339 244.405937 646.821323 368.341222 646.821323 512 646.821323 655.658778 745.28339 779.594063 882.824951 813.366184 933.844692 825.893641 947.19172 892.191161 904.99411 923.485149 817.495022 988.374952 711.496263 1024 600.275862 1024 317.506066 1024 88.275862 794.769796 88.275862 512Z"
    p-id="16947"></path>
</svg>
